<?xml version="1.0" standalone="no"?>
<!DOCTYPE svg PUBLIC "-//W3C//DTD SVG 20010904//EN"
 "http://www.w3.org/TR/2001/REC-SVG-20010904/DTD/svg10.dtd">
<svg version="1.0" xmlns="http://www.w3.org/2000/svg"
 width="11894.000000pt" height="4326.000000pt" viewBox="0 0 11894.000000 4326.000000"
 preserveAspectRatio="xMidYMid meet">
<metadata>
Created by potrace 1.16, written by Peter Selinger 2001-2019
</metadata>
<g transform="translate(0.000000,4326.000000) scale(0.100000,-0.100000)"
fill="#000000" stroke="none">
<path d="M49845 18749 c-383 -31 -758 -106 -1094 -218 -1115 -373 -1786 -1104
-1922 -2091 -17 -122 -18 -506 -1 -625 23 -167 54 -299 103 -449 222 -675 770
-1233 1639 -1665 370 -184 731 -327 1365 -541 439 -148 641 -223 870 -322 602
-260 850 -484 944 -854 61 -239 49 -498 -34 -701 -148 -366 -536 -602 -1090
-663 -134 -15 -519 -12 -677 5 -828 88 -1308 468 -1437 1139 -17 86 -41 315
-41 389 0 16 -53 17 -975 17 l-975 0 0 -69 c0 -273 60 -629 152 -905 133 -396
345 -734 657 -1047 248 -248 506 -431 851 -604 512 -256 1055 -406 1670 -460
204 -17 726 -20 931 -5 623 48 1135 177 1576 399 691 346 1133 865 1303 1530
59 231 74 365 74 676 0 301 -9 396 -59 620 -60 271 -185 571 -332 795 -369
561 -1011 1016 -1963 1393 -240 95 -439 164 -785 273 -505 158 -765 258 -1069
412 -467 237 -688 466 -752 782 -22 110 -15 301 15 415 44 166 134 317 262
441 192 183 434 297 760 354 155 28 548 39 710 21 401 -46 690 -171 915 -395
218 -217 334 -492 351 -828 l6 -128 975 0 975 0 -6 149 c-40 907 -480 1679
-1244 2181 -138 91 -362 210 -524 278 -384 163 -822 266 -1283 302 -149 12
-694 11 -841 -1z"/>
<path d="M55290 17070 l0 -860 -510 0 -510 0 0 -685 0 -685 510 0 509 0 4
-2017 c3 -1866 4 -2027 21 -2138 74 -505 225 -846 495 -1116 346 -345 803
-499 1486 -499 393 0 676 36 1023 131 l112 31 0 715 0 716 -32 -7 c-211 -43
-695 -47 -836 -8 -220 61 -317 170 -373 418 l-23 99 -3 1838 -4 1837 601 0
600 0 0 685 0 685 -600 0 -600 0 0 860 0 860 -935 0 -935 0 0 -860z"/>
<path d="M61825 16329 c-833 -84 -1542 -422 -2038 -974 -586 -651 -887 -1544
-887 -2635 0 -1166 307 -2058 937 -2720 489 -514 1120 -815 1908 -912 176 -21
802 -18 980 5 795 104 1429 420 1912 955 549 608 832 1350 883 2317 13 235 -1
766 -25 970 -89 755 -322 1356 -726 1865 -110 139 -347 374 -489 484 -451 350
-928 543 -1560 632 -135 19 -749 28 -895 13z m620 -1524 c140 -23 230 -51 351
-110 458 -223 736 -707 831 -1446 22 -170 25 -786 5 -979 -54 -522 -165 -882
-353 -1149 -171 -245 -418 -417 -706 -493 -116 -31 -122 -32 -353 -32 -206 0
-246 2 -326 21 -618 146 -977 644 -1090 1513 -22 169 -30 678 -15 893 40 546
154 953 347 1244 68 102 211 254 302 322 140 103 335 185 513 215 114 19 381
20 494 1z"/>
<path d="M69746 16324 c-493 -76 -906 -366 -1212 -849 -27 -43 -50 -71 -51
-64 -1 8 -11 181 -23 384 -12 204 -23 380 -26 393 l-4 22 -885 0 -885 0 0
-3505 0 -3505 940 0 940 0 0 2298 0 2297 40 72 c196 360 556 570 1070 624 199
21 754 -1 921 -36 l27 -6 8 618 c4 340 8 748 8 908 l1 289 -88 23 c-149 38
-292 53 -500 52 -108 -1 -231 -7 -281 -15z"/>
<path d="M73973 16324 c-986 -107 -1795 -608 -2295 -1419 -327 -532 -511
-1149 -559 -1879 -15 -230 -6 -790 15 -981 94 -831 389 -1477 916 -2006 395
-397 872 -676 1412 -828 341 -96 595 -131 1016 -138 560 -10 929 43 1377 197
460 159 835 389 1156 709 134 134 299 327 299 350 0 10 -911 1031 -919 1031
-4 0 -48 -46 -98 -103 -165 -188 -356 -336 -578 -447 -223 -111 -422 -170
-695 -206 -174 -22 -551 -15 -693 15 -356 73 -615 215 -857 467 -210 219 -354
497 -423 815 -14 63 -27 131 -30 152 l-6 37 2226 0 2225 0 -5 573 c-5 608 -12
738 -62 1061 -97 625 -318 1165 -651 1586 -37 47 -133 150 -213 230 -469 467
-1048 722 -1796 790 -153 14 -615 11 -762 -6z m679 -1524 c380 -65 649 -260
809 -585 62 -127 100 -245 125 -385 15 -86 34 -313 34 -407 l0 -53 -1295 0
c-712 0 -1295 2 -1295 4 0 3 11 65 25 138 78 424 227 740 455 969 175 177 372
280 615 323 124 22 389 20 527 -4z"/>
</g>
</svg>
